<svg width="22" height="13" viewBox="0 0 22 13" fill="none" xmlns="http://www.w3.org/2000/svg">
<path fill-rule="evenodd" clip-rule="evenodd" d="M21.5413 0.237431C22.0683 0.61119 22.1538 1.29292 21.7321 1.76012L11.9544 12.5934C11.7224 12.8504 11.3713 13 11 13C10.6287 13 10.2776 12.8504 10.0456 12.5934L0.26787 1.76012C-0.153807 1.29292 -0.068346 0.611191 0.458748 0.237432C0.985846 -0.136328 1.75498 -0.0605797 2.17665 0.406619L11 10.1825L19.8233 0.406619C20.245 -0.06058 21.0142 -0.136328 21.5413 0.237431Z" fill="white"/>
<path fill-rule="evenodd" clip-rule="evenodd" d="M21.5413 0.237431C22.0683 0.61119 22.1538 1.29292 21.7321 1.76012L11.9544 12.5934C11.7224 12.8504 11.3713 13 11 13C10.6287 13 10.2776 12.8504 10.0456 12.5934L0.26787 1.76012C-0.153807 1.29292 -0.068346 0.611191 0.458748 0.237432C0.985846 -0.136328 1.75498 -0.0605797 2.17665 0.406619L11 10.1825L19.8233 0.406619C20.245 -0.06058 21.0142 -0.136328 21.5413 0.237431Z" fill="url(#paint0_linear_48_278)"/>
<path fill-rule="evenodd" clip-rule="evenodd" d="M21.5413 0.237431C22.0683 0.61119 22.1538 1.29292 21.7321 1.76012L11.9544 12.5934C11.7224 12.8504 11.3713 13 11 13C10.6287 13 10.2776 12.8504 10.0456 12.5934L0.26787 1.76012C-0.153807 1.29292 -0.068346 0.611191 0.458748 0.237432C0.985846 -0.136328 1.75498 -0.0605797 2.17665 0.406619L11 10.1825L19.8233 0.406619C20.245 -0.06058 21.0142 -0.136328 21.5413 0.237431Z" fill="#2E8FF4"/>
<path fill-rule="evenodd" clip-rule="evenodd" d="M21.5413 0.237431C22.0683 0.61119 22.1538 1.29292 21.7321 1.76012L11.9544 12.5934C11.7224 12.8504 11.3713 13 11 13C10.6287 13 10.2776 12.8504 10.0456 12.5934L0.26787 1.76012C-0.153807 1.29292 -0.068346 0.611191 0.458748 0.237432C0.985846 -0.136328 1.75498 -0.0605797 2.17665 0.406619L11 10.1825L19.8233 0.406619C20.245 -0.06058 21.0142 -0.136328 21.5413 0.237431Z" fill="#F9FFFA"/>
<defs>
<linearGradient id="paint0_linear_48_278" x1="10.9827" y1="30.6719" x2="10.9827" y2="-2.50521" gradientUnits="userSpaceOnUse">
<stop offset="0.175863" stop-color="#FF384A"/>
<stop offset="1" stop-color="#EB970B"/>
</linearGradient>
</defs>
</svg>
