<svg width="161" height="48" viewBox="0 0 161 48" fill="none" xmlns="http://www.w3.org/2000/svg">
<path d="M135.438 18.8585C132.947 17.1202 131.701 14.9169 131.701 12.2456C131.701 9.21735 133.009 6.5607 135.627 4.27562C138.242 1.99054 142.033 0.848 146.998 0.848C151.46 0.848 154.87 1.71718 157.227 3.45554C159.582 5.1939 160.761 7.56083 160.761 10.553C160.761 14.5863 158.674 17.6063 154.498 19.6131C157.76 21.4055 159.391 23.959 159.391 27.2754C159.391 30.9665 157.841 34.2779 154.74 37.2079C151.64 40.1379 147.078 41.6029 141.058 41.6029C136.542 41.6029 133.145 40.5913 130.868 38.5649C128.593 36.5401 127.455 33.9145 127.455 30.6882C127.455 25.6696 130.115 21.728 135.44 18.8602H135.438V18.8585ZM142.375 34.8803C144.4 34.8803 145.973 34.1093 147.093 32.569C148.213 31.0287 148.772 29.2445 148.772 27.2197C148.772 25.7678 148.365 24.6973 147.55 24.0065C146.734 23.3158 145.744 22.972 144.579 22.972C142.428 22.972 140.811 23.7741 139.725 25.3782C138.64 26.9824 138.098 28.6994 138.098 30.5278C138.098 31.8537 138.493 32.9111 139.28 33.7001C140.069 34.4891 141.099 34.8819 142.372 34.8819H142.375V34.8803ZM145.896 16.4916C147.168 16.4916 148.28 15.9776 149.229 14.9464C150.178 13.9152 150.655 12.6662 150.655 11.1963C150.655 9.97849 150.314 9.03238 149.632 8.35962C148.951 7.68687 148.019 7.35131 146.836 7.35131C145.386 7.35131 144.187 7.8571 143.248 8.87033C142.308 9.88355 141.837 11.1145 141.837 12.5664C141.837 13.8759 142.217 14.8564 142.979 15.5111C143.741 16.1659 144.713 16.4916 145.896 16.4916ZM98.7167 18.8585C96.2254 17.1202 94.9797 14.9169 94.9797 12.2456C94.9797 9.21735 96.2876 6.5607 98.9049 4.27562C101.521 1.99054 105.312 0.848 110.276 0.848C114.738 0.848 118.148 1.71718 120.505 3.45554C122.861 5.1939 124.039 7.56083 124.039 10.553C124.039 14.5863 121.952 17.6063 117.776 19.6131C121.039 21.4055 122.669 23.959 122.669 27.2754C122.669 30.9665 121.119 34.2779 118.019 37.2079C114.918 40.1379 110.357 41.6029 104.336 41.6029C99.8199 41.6029 96.4234 40.5913 94.1465 38.5649C91.8696 36.5401 90.7336 33.9145 90.7336 30.6882C90.7336 25.6696 93.3936 21.728 98.7183 18.8602H98.7167V18.8585ZM105.652 34.8803C107.677 34.8803 109.25 34.1093 110.37 32.569C111.489 31.0287 112.049 29.2445 112.049 27.2197C112.049 25.7678 111.641 24.6973 110.826 24.0065C110.011 23.3158 109.021 22.972 107.855 22.972C105.705 22.972 104.087 23.7741 103.002 25.3782C101.917 26.9824 101.375 28.6994 101.375 30.5278C101.375 31.8537 101.769 32.9111 102.557 33.7001C103.346 34.4891 104.375 34.8819 105.649 34.8819H105.652V34.8803ZM109.175 16.4916C110.447 16.4916 111.558 15.9776 112.507 14.9464C113.457 13.9152 113.933 12.6662 113.933 11.1963C113.933 9.97849 113.593 9.03238 112.912 8.35962C112.231 7.68687 111.299 7.35131 110.116 7.35131C108.664 7.35131 107.467 7.8571 106.528 8.87033C105.588 9.88355 105.117 11.1145 105.117 12.5664C105.117 13.8759 105.497 14.8564 106.259 15.5111C107.021 16.1659 107.993 16.4916 109.176 16.4916H109.175ZM71.538 40.5521C69.2251 41.251 66.6356 41.6013 63.7678 41.6013C58.1582 41.6013 53.7714 40.1756 50.6089 37.3258C47.4448 34.4776 45.8636 30.4624 45.8636 25.2833C45.8636 22.6495 46.2434 20.0584 47.0062 17.513C47.7673 14.9693 48.9278 12.5533 50.4878 10.2682C52.0461 7.98314 53.9678 6.07454 56.2545 4.54243C58.5396 3.01031 60.7805 2.01018 62.9755 1.54367C65.1706 1.0788 67.4164 0.844727 69.7096 0.844727C75.6957 0.844727 80.0989 2.43577 82.9225 5.61622C85.7461 8.7983 87.1571 12.7726 87.1571 17.5392C87.1571 20.7835 86.4614 24.1489 85.0733 27.6338C83.6836 31.1204 81.3494 34.2059 78.0708 36.8953C80.7945 39.1705 82.5591 40.5144 83.3661 40.9269L78.8499 47.2714C77.236 46.106 74.7987 43.8667 71.538 40.5504V40.5521ZM70.7048 29.7454C72.0667 28.1151 73.1602 26.0755 73.9835 23.6284C74.8085 21.1829 75.221 18.9649 75.221 16.9761C75.221 14.9873 74.5941 13.1851 73.3386 11.8413C72.0831 10.4974 70.4364 9.82626 68.3919 9.82626C66.1691 9.82626 64.2556 10.6365 62.6531 12.2587C61.0489 13.8808 59.8442 16.0497 59.0372 18.7652C58.2302 21.4792 57.8275 23.7872 57.8275 25.6876C57.8275 27.588 58.4152 29.2854 59.5888 30.6211C60.7625 31.9568 62.4255 32.6247 64.5764 32.6247L65.9219 32.5707C65.3834 31.7457 64.5731 30.9174 63.4879 30.0842C62.4042 29.2511 61.6742 28.6634 61.2977 28.323L64.1475 24.3715C66.0283 25.501 68.2152 27.2934 70.7065 29.7487V29.7454H70.7048ZM0.00163847 25.3307V25.1589C0.0130966 22.5677 0.394485 20.0175 1.14417 17.513C1.90532 14.9693 3.06587 12.5533 4.62581 10.2682C6.18412 7.98314 8.10744 6.07454 10.3925 4.54243C12.6776 3.01031 14.9168 2.01018 17.1135 1.54367C19.3086 1.0788 21.5544 0.844727 23.8476 0.844727C29.8337 0.844727 34.2385 2.43577 37.0605 5.61622C39.8825 8.7983 41.2935 12.7726 41.2935 17.5392C41.2935 20.7835 40.5994 24.1489 39.2097 27.6338C37.82 31.1204 35.4858 34.2059 32.2072 36.8953C34.9309 39.1705 36.6971 40.5144 37.5025 40.9269L32.9863 47.2714C31.3724 46.106 28.9351 43.8667 25.6744 40.5504C23.3631 41.2494 20.772 41.5997 17.9041 41.5997C12.2946 41.5997 7.90774 40.1739 4.7453 37.3241C1.59104 34.4842 0.00982125 30.4853 0 25.3291H0.00163847V25.3307ZM24.8429 29.7454C26.2047 28.1151 27.2982 26.0755 28.1215 23.6284C28.9465 21.1829 29.359 18.9649 29.359 16.9761C29.359 14.9873 28.7304 13.1851 27.4766 11.8413C26.2211 10.4974 24.5728 9.82626 22.53 9.82626C20.3071 9.82626 18.3936 10.6365 16.7911 12.2587C15.1853 13.8808 13.9806 16.0497 13.1752 18.7652C12.3682 21.4792 11.9656 23.7872 11.9656 25.6876C11.9656 27.588 12.5516 29.2854 13.7268 30.6211C14.9005 31.9568 16.5635 32.6247 18.7144 32.6247L20.0583 32.5707C19.5214 31.7457 18.7095 30.9174 17.6259 30.0842C16.5406 29.2511 15.8106 28.6634 15.4357 28.323L18.2839 24.3715C20.1663 25.501 22.3532 27.2934 24.8445 29.7487V29.7454H24.8429Z" fill="#FED304"/>
</svg>
