<svg width="23" height="20" viewBox="0 0 23 20" fill="none" xmlns="http://www.w3.org/2000/svg">
<path d="M14.0386 13.5157C10.6604 16.4053 5.64254 16.1915 2.57367 13.4291C-0.55707 10.6146 -0.841683 6.10693 1.77552 2.99199C4.4484 -0.180746 9.1507 -0.891577 12.7084 1.15423C14.6945 2.29271 15.9628 3.94554 16.4826 6.06647C16.9961 8.18163 16.6001 10.1696 15.3751 12.0247C15.8638 12.4351 16.3465 12.8454 16.8291 13.2499C17.8809 14.1341 18.9327 15.0183 19.9845 15.9025C20.5661 16.388 21.1416 16.885 21.7232 17.3704C22.3233 17.8732 22.3728 18.6996 21.8222 19.2428C21.2901 19.7745 20.3743 19.7803 19.8299 19.2428C18.2769 17.7172 16.7362 16.1857 15.1894 14.66C14.8058 14.2844 14.4284 13.9087 14.0386 13.5215V13.5157ZM8.35255 13.7354C11.8112 13.7585 14.6759 11.1001 14.713 7.8291C14.7501 4.56968 11.8978 1.87084 8.37729 1.85928C4.8877 1.84772 2.06632 4.45988 2.01063 7.65573C1.94876 11.025 4.77633 13.7065 8.35873 13.7354H8.35255Z" fill="#BD0000"/>
<path d="M14.0386 13.5157C10.6604 16.4053 5.64254 16.1915 2.57367 13.4291C-0.55707 10.6146 -0.841683 6.10693 1.77552 2.99199C4.4484 -0.180746 9.1507 -0.891577 12.7084 1.15423C14.6945 2.29271 15.9628 3.94554 16.4826 6.06647C16.9961 8.18163 16.6001 10.1696 15.3751 12.0247C15.8638 12.4351 16.3465 12.8454 16.8291 13.2499C17.8809 14.1341 18.9327 15.0183 19.9845 15.9025C20.5661 16.388 21.1416 16.885 21.7232 17.3704C22.3233 17.8732 22.3728 18.6996 21.8222 19.2428C21.2901 19.7745 20.3743 19.7803 19.8299 19.2428C18.2769 17.7172 16.7362 16.1857 15.1894 14.66C14.8058 14.2844 14.4284 13.9087 14.0386 13.5215V13.5157ZM8.35255 13.7354C11.8112 13.7585 14.6759 11.1001 14.713 7.8291C14.7501 4.56968 11.8978 1.87084 8.37729 1.85928C4.8877 1.84772 2.06632 4.45988 2.01063 7.65573C1.94876 11.025 4.77633 13.7065 8.35873 13.7354H8.35255Z" fill="#B8B8B8"/>
</svg>
