<svg width="35" height="36" viewBox="0 0 35 36" fill="none" xmlns="http://www.w3.org/2000/svg">
<path fill-rule="evenodd" clip-rule="evenodd" d="M6.69336 20.8719H8.76606V12.131H5.70531V12.1331C3.49156 12.1331 1.90151 14.2419 1.90151 16.5015H1.89941C1.89941 18.7572 3.49086 20.8698 5.70531 20.8698V20.8719H6.69336ZM31.0999 7.51381C31.7145 7.15786 32.2546 8.09201 31.6407 8.44726L27.9128 10.5994C27.2975 10.9554 26.7582 10.0212 27.3721 9.66631L31.0999 7.51381ZM32.5675 15.8113C33.279 15.8113 33.279 16.8924 32.5675 16.8924H28.729C28.0175 16.8924 28.0175 15.8113 28.729 15.8113H32.5675ZM31.5822 24.2225C32.1961 24.5781 31.6568 25.5112 31.0415 25.1556L27.3231 23.0087C26.7092 22.6534 27.2485 21.7196 27.8638 22.0752L31.5822 24.2225ZM21.9975 5.00781C21.3069 5.00781 20.7399 5.57481 20.7399 6.26536V26.4044C20.7399 27.5058 22.0857 28.0917 22.8851 27.292C23.1133 27.0638 23.255 26.7495 23.255 26.4044V6.26536C23.255 5.57236 22.6905 5.00781 21.9975 5.00781ZM19.6588 7.12881L9.84721 11.9273V21.0655L19.6588 25.5644V7.12881ZM24.3362 14.063V18.6067C26.4992 17.8808 26.5002 14.7896 24.3362 14.063ZM11.3701 22.9488V29.2611H11.368C11.368 30.2785 10.3568 30.9918 9.30576 30.9918V30.9939C8.25856 30.9936 7.24356 30.2757 7.24356 29.2618H7.24566V29.2611H7.24356V21.9485H9.18886L11.3701 22.9488Z" fill="white"/>
</svg>
