<svg width="22" height="13" viewBox="0 0 22 13" fill="none" xmlns="http://www.w3.org/2000/svg">
<path fill-rule="evenodd" clip-rule="evenodd" d="M21.5413 12.7626C22.0683 12.3888 22.1538 11.7071 21.7321 11.2399L11.9544 0.406578C11.7224 0.149595 11.3713 -1.08042e-06 11 -1.08485e-06C10.6287 -1.08928e-06 10.2776 0.149595 10.0456 0.406578L0.26787 11.2399C-0.153807 11.7071 -0.068346 12.3888 0.458748 12.7626C0.985846 13.1363 1.75498 13.0606 2.17665 12.5934L11 2.8175L19.8233 12.5934C20.245 13.0606 21.0142 13.1363 21.5413 12.7626Z" fill="white"/>
<path fill-rule="evenodd" clip-rule="evenodd" d="M21.5413 12.7626C22.0683 12.3888 22.1538 11.7071 21.7321 11.2399L11.9544 0.406578C11.7224 0.149595 11.3713 -1.08042e-06 11 -1.08485e-06C10.6287 -1.08928e-06 10.2776 0.149595 10.0456 0.406578L0.26787 11.2399C-0.153807 11.7071 -0.068346 12.3888 0.458748 12.7626C0.985846 13.1363 1.75498 13.0606 2.17665 12.5934L11 2.8175L19.8233 12.5934C20.245 13.0606 21.0142 13.1363 21.5413 12.7626Z" fill="url(#paint0_linear_48_269)"/>
<path fill-rule="evenodd" clip-rule="evenodd" d="M21.5413 12.7626C22.0683 12.3888 22.1538 11.7071 21.7321 11.2399L11.9544 0.406578C11.7224 0.149595 11.3713 -1.08042e-06 11 -1.08485e-06C10.6287 -1.08928e-06 10.2776 0.149595 10.0456 0.406578L0.26787 11.2399C-0.153807 11.7071 -0.068346 12.3888 0.458748 12.7626C0.985846 13.1363 1.75498 13.0606 2.17665 12.5934L11 2.8175L19.8233 12.5934C20.245 13.0606 21.0142 13.1363 21.5413 12.7626Z" fill="#2E8FF4"/>
<path fill-rule="evenodd" clip-rule="evenodd" d="M21.5413 12.7626C22.0683 12.3888 22.1538 11.7071 21.7321 11.2399L11.9544 0.406578C11.7224 0.149595 11.3713 -1.08042e-06 11 -1.08485e-06C10.6287 -1.08928e-06 10.2776 0.149595 10.0456 0.406578L0.26787 11.2399C-0.153807 11.7071 -0.068346 12.3888 0.458748 12.7626C0.985846 13.1363 1.75498 13.0606 2.17665 12.5934L11 2.8175L19.8233 12.5934C20.245 13.0606 21.0142 13.1363 21.5413 12.7626Z" fill="#F9FFFA"/>
<defs>
<linearGradient id="paint0_linear_48_269" x1="10.9827" y1="-17.6719" x2="10.9827" y2="15.5052" gradientUnits="userSpaceOnUse">
<stop offset="0.175863" stop-color="#FF384A"/>
<stop offset="1" stop-color="#EB970B"/>
</linearGradient>
</defs>
</svg>
